<svg width="472" height="316" viewBox="0 0 472 316" fill="none" xmlns="http://www.w3.org/2000/svg">
<path d="M229.67 115.18C229.67 52.035 178.486 0.839996 115.33 0.839996C52.178 0.839996 6.33999 50.266 0.989988 113.19C-7.17411 209.202 65.763 289.59 154.32 315.17C124.136 296.92 103.082 265.178 99.57 228.264C104.738 228.998 109.968 229.518 115.328 229.518C178.48 229.518 229.668 178.334 229.668 115.178L229.67 115.18Z" fill="black"/>
<path d="M471.2 115.18C471.2 52.035 420.016 0.839996 356.86 0.839996C293.715 0.839996 247.87 50.266 242.52 113.19C234.356 209.202 307.293 289.59 395.85 315.17C365.666 296.92 344.616 265.178 341.1 228.264C346.268 228.998 351.506 229.518 356.858 229.518C420.014 229.518 471.198 178.334 471.198 115.178L471.2 115.18Z" fill="black"/>
</svg>
